# File created by Blade
# Date/Time:  Mon Sep 22 17:23:16 2014
# Frame Rate: 120.000 fps
#------------------------------------------------------
:FULLY-SPECIFIED
:DEGREES
1759
root 5.063191 36.431277 -0.556268 -17.360491 -11.710031 -1.422987
RightUpLeg -67.572981 -26.432206 -0.954209
RightLeg 98.434050 -0.000000 -0.000000
RightFoot -6.538268 -21.579382 14.125280
RightToeBase -2.116763 -0.000000 0.000000
LeftUpLeg 11.804602 -1.650272 -11.342624
LeftLeg 22.587150 -0.000000 -0.000000
LeftFoot -19.218587 14.947029 -9.216812
LeftToeBase 0.386128 -0.000000 -0.000000
Spine 32.156731 5.638674 3.210851
RightShoulder 13.461982 -16.147235 -18.483248
RightArm 50.415092 -35.226375 39.964297
RightForeArm -183.268849 0.000000 93.012736
RightHand 98.717016 -0.000000 -168.482616
RightHandThumb1 -24.326973 -0.000000 -32.862282
LeftShoulder -15.109340 26.045594 4.559519
LeftArm 78.748512 -14.737968 -63.483979
LeftForeArm 58.756853 -0.000000 90.164644
LeftHand -27.278741 -0.000000 -19.233210
LeftHandThumb1 -26.253704 0.000000 33.147579
Head -6.385982 5.530659 2.817800
1760
root 5.073753 36.444287 -0.519423 -17.400550 -11.460953 -1.265458
RightUpLeg -67.575481 -26.818926 -1.022076
RightLeg 98.740045 -0.000000 -0.000000
RightFoot -6.101067 -21.220624 14.211078
RightToeBase -2.275236 -0.000000 0.000000
LeftUpLeg 11.989188 -1.923465 -11.614992
LeftLeg 22.359911 -0.000000 -0.000000
LeftFoot -19.012133 14.993785 -9.288472
LeftToeBase 0.173439 -0.000000 -0.000000
Spine 32.128058 5.497776 3.086620
RightShoulder 13.399262 -16.290473 -18.337045
RightArm 50.334699 -35.204425 40.263589
RightForeArm -183.461393 -0.000000 92.852699
RightHand 98.628117 0.000000 -168.275238
RightHandThumb1 -24.326973 -0.000000 -32.862282
LeftShoulder -15.127589 26.122938 4.449796
LeftArm 78.741562 -14.679387 -63.532810
LeftForeArm 58.706764 0.000000 90.225791
LeftHand -27.343103 -0.000000 -19.156731
LeftHandThumb1 -26.253704 0.000000 33.147579
Head -6.070153 5.513501 2.756984
1761
root 5.076141 36.459986 -0.485161 -17.359794 -11.365843 -1.179924
RightUpLeg -67.631318 -27.011361 -0.972116
RightLeg 99.015541 -0.000000 -0.000000
RightFoot -5.653911 -20.807528 14.212801
RightToeBase -1.936508 -0.000000 0.000000
LeftUpLeg 12.099853 -2.084066 -11.756550
LeftLeg 22.129437 -0.000000 -0.000000
LeftFoot -18.861951 15.033498 -9.367897
LeftToeBase 0.074466 -0.000000 -0.000000
Spine 32.006589 5.513479 3.101264
RightShoulder 13.266140 -16.462718 -18.204762
RightArm 50.175497 -35.217464 40.644873
RightForeArm -183.511686 -0.000000 92.733917
RightHand 98.606058 -0.000000 -168.036395
RightHandThumb1 -24.326973 -0.000000 -32.862282
LeftShoulder -15.099128 26.133790 4.404608
LeftArm 78.617498 -14.518952 -63.542946
LeftForeArm 58.759429 -0.000000 90.311869
LeftHand -27.342482 0.000000 -19.155103
LeftHandThumb1 -26.253704 0.000000 33.147579
Head -5.760718 5.379062 2.654790
1762
root 5.067693 36.480600 -0.447692 -17.327262 -11.384669 -1.149176
RightUpLeg -67.651365 -27.044690 -0.846244
RightLeg 99.288318 -0.000000 -0.000000
RightFoot -5.236184 -20.445278 14.206130
RightToeBase -2.215266 -0.000000 0.000000
LeftUpLeg 12.243283 -2.081366 -11.773756
LeftLeg 21.868136 -0.000000 -0.000000
LeftFoot -18.673544 15.029937 -9.377179
LeftToeBase -0.130460 -0.000000 0.000000
Spine 31.858419 5.528432 3.162897
RightShoulder 13.236189 -16.625354 -18.167269
RightArm 49.979980 -35.251693 41.100832
RightForeArm -183.478074 0.000000 92.638869
RightHand 98.593629 -0.000000 -167.878515
RightHandThumb1 -24.326973 -0.000000 -32.862282
LeftShoulder -15.120916 26.130769 4.360695
LeftArm 78.391574 -14.352871 -63.521195
LeftForeArm 58.758549 -0.000000 90.388232
LeftHand -27.366569 0.000000 -19.179306
LeftHandThumb1 -26.253704 0.000000 33.147579
Head -5.371142 5.425221 2.534880
1763
root 5.060454 36.508487 -0.411531 -17.316617 -11.427182 -1.191579
RightUpLeg -67.581783 -27.049572 -0.695604
RightLeg 99.520704 -0.000000 -0.000000
RightFoot -4.847558 -20.087329 14.353490
RightToeBase -2.279656 -0.000000 0.000000
LeftUpLeg 12.417768 -2.032006 -11.702892
LeftLeg 21.607370 -0.000000 -0.000000
LeftFoot -18.494042 14.985238 -9.446905
LeftToeBase -0.278528 -0.000000 0.000000
Spine 31.769657 5.505199 3.334117
RightShoulder 13.161229 -16.716535 -18.184876
RightArm 49.746885 -35.344060 41.588353
RightForeArm -183.403234 -0.000000 92.576028
RightHand 98.540513 -0.000000 -167.551254
RightHandThumb1 -24.326973 -0.000000 -32.862282
LeftShoulder -15.201894 26.172167 4.220967
LeftArm 78.275270 -14.189858 -63.485667
LeftForeArm 58.777023 0.000000 90.418689
LeftHand -27.306443 -0.000000 -19.219919
LeftHandThumb1 -26.253704 0.000000 33.147579
Head -5.075247 5.468938 2.297800
1764
root 5.051526 36.537513 -0.374921 -17.279883 -11.506092 -1.265540
RightUpLeg -67.498020 -26.970589 -0.544254
RightLeg 99.749604 -0.000000 -0.000000
RightFoot -4.524242 -19.673756 14.595759
RightToeBase -2.103243 -0.000000 0.000000
LeftUpLeg 12.601787 -1.986394 -11.603777
LeftLeg 21.288633 -0.000000 -0.000000
LeftFoot -18.310288 14.997956 -9.462648
LeftToeBase -0.447214 -0.000000 0.000000
Spine 31.635427 5.470072 3.543994
RightShoulder 13.090627 -16.782850 -18.229275
RightArm 49.467373 -35.475898 42.075364
RightForeArm -183.340513 0.000000 92.574952
RightHand 98.556204 -0.000000 -167.731444
RightHandThumb1 -24.326973 -0.000000 -32.862282
LeftShoulder -15.276719 26.160857 4.080610
LeftArm 78.072178 -14.008566 -63.407603
LeftForeArm 58.808719 0.000000 90.455883
LeftHand -27.231057 -0.000000 -19.329339
LeftHandThumb1 -26.253704 0.000000 33.147579
Head -4.776714 5.634711 2.098917
1765
root 5.039848 36.565060 -0.340880 -17.197756 -11.569123 -1.343717
RightUpLeg -67.469846 -26.885839 -0.394671
RightLeg 99.988445 -0.000000 -0.000000
RightFoot -4.145472 -19.248727 14.952217
RightToeBase -2.284939 -0.000000 0.000000
LeftUpLeg 12.694549 -1.745736 -11.402633
LeftLeg 21.058771 -0.000000 -0.000000
LeftFoot -18.128937 14.766020 -9.440780
LeftToeBase -0.586111 -0.000000 0.000000
Spine 31.433112 5.397290 3.671349
RightShoulder 13.026541 -16.891322 -18.246854
RightArm 49.239342 -35.578654 42.498624
RightForeArm -183.016905 -0.000000 92.617754
RightHand 98.532656 -0.000000 -167.485458
RightHandThumb1 -24.326973 -0.000000 -32.862282
LeftShoulder -15.385278 26.102276 4.014374
LeftArm 77.793039 -13.787845 -63.316583
LeftForeArm 58.871792 -0.000000 90.507689
LeftHand -27.119768 0.000000 -19.470247
LeftHandThumb1 -26.253704 0.000000 33.147579
Head -4.501230 5.625494 1.904564
1766
root 5.024344 36.588293 -0.313897 -17.032683 -11.671278 -1.344301
RightUpLeg -67.565280 -26.678007 -0.283843
RightLeg 100.228189 -0.000000 -0.000000
RightFoot -3.770804 -18.965902 15.226729
RightToeBase -2.453325 -0.000000 0.000000
LeftUpLeg 12.728161 -1.583746 -11.304926
LeftLeg 20.727091 -0.000000 -0.000000
LeftFoot -17.947062 14.689417 -9.401848
LeftToeBase -0.723788 -0.000000 0.000000
Spine 31.105217 5.421748 3.703148
RightShoulder 12.933835 -17.022334 -18.246398
RightArm 49.030462 -35.742854 42.913299
RightForeArm -182.667467 -0.000000 92.732404
RightHand 98.629787 -0.000000 -167.631754
RightHandThumb1 -24.326973 -0.000000 -32.862282
LeftShoulder -15.466183 26.131328 3.919779
LeftArm 77.564217 -13.702979 -63.121788
LeftForeArm 58.766158 -0.000000 90.537095
LeftHand -27.068434 -0.000000 -19.405062
LeftHandThumb1 -26.253704 0.000000 33.147579
Head -4.254327 5.795841 1.791715
